{"title":"18+ The Unattainable Story 2017 Movies 720p HDRip x264 5.1 ESubs","magnet":"magnet:?xt=urn:btih:1761363753f3489a5ae302bc30ff768dcc721f9b&dn=18%2B+The+Unattainable+Story+2017+Movies+720p+HDRip+x264+5.1+ESubs&tr=udp%3A%2F%2Ftracker.leechers-paradise.org%3A6969&tr=udp%3A%2F%2Fzer0day.ch%3A1337&tr=udp%3A%2F%2Fopen.demonii.com%3A1337&tr=udp%3A%2F%2Ftracker.coppersurfer.tk%3A6969&tr=udp%3A%2F%2Fexodus.desync.com%3A6969","uploader":"basicssom","categoryP":"video","categoryS":"hd___movies","size":"816970224","seeders":"2","leechers":"4","description":"----------------------------------------------------------------\r\n18+ The Unattainable Story 2017 Movies 720p HDRip x264 5.1 ESubs with Sample &#x263B;rDX&#x263B;\r\n\r\nSCREEN SHOTS &amp; POSTER:\r\n   <a href=\"\nhttp://iphonehosting.eu/2018/4/a/bucks/index.html\" rel=\"nofollow\" target=\"_NEW\">\nhttp://iphonehosting.eu/2018/4/a/bucks/index.html</a> <a href=\"\nhttp://iphonehosting.eu/2018/4/a/bucks/1.html\" rel=\"nofollow\" target=\"_NEW\">\nhttp://iphonehosting.eu/2018/4/a/bucks/1.html</a> <a href=\"\nhttp://iphonehosting.eu/2018/4/a/bucks/2.html\" rel=\"nofollow\" target=\"_NEW\">\nhttp://iphonehosting.eu/2018/4/a/bucks/2.html</a>   <a href=\"\nhttp://iphonehosting.eu/2018/4/a/bucks/3.html\" rel=\"nofollow\" target=\"_NEW\">\nhttp://iphonehosting.eu/2018/4/a/bucks/3.html</a>   <a href=\"\nhttp://iphonehosting.eu/2018/4/a/bucks/4.html\" rel=\"nofollow\" target=\"_NEW\">\nhttp://iphonehosting.eu/2018/4/a/bucks/4.html</a>   <a href=\"\nhttp://iphonehosting.eu/2018/4/a/bucks/5.html\" rel=\"nofollow\" target=\"_NEW\">\nhttp://iphonehosting.eu/2018/4/a/bucks/5.html</a>   <a href=\"\nhttp://iphonehosting.eu/2018/4/a/bucks/6.html\" rel=\"nofollow\" target=\"_NEW\">\nhttp://iphonehosting.eu/2018/4/a/bucks/6.html</a>   <a href=\"\nhttp://iphonehosting.eu/2018/4/a/bucks/7.html\" rel=\"nofollow\" target=\"_NEW\">\nhttp://iphonehosting.eu/2018/4/a/bucks/7.html</a>   <a href=\"\nhttp://iphonehosting.eu/2018/4/a/bucks/8.html\" rel=\"nofollow\" target=\"_NEW\">\nhttp://iphonehosting.eu/2018/4/a/bucks/8.html</a>   <a href=\"\nhttp://iphonehosting.eu/2018/4/a/bucks/9.html\" rel=\"nofollow\" target=\"_NEW\">\nhttp://iphonehosting.eu/2018/4/a/bucks/9.html</a>   <a href=\"\nhttp://iphonehosting.eu/2018/4/a/bucks/10.html\" rel=\"nofollow\" target=\"_NEW\">\nhttp://iphonehosting.eu/2018/4/a/bucks/10.html</a>\r\n\r\nFile size                                : 770 MiB\r\nDuration                                 : 1 h 12 min\r\nOverall bit rate                         : 1 486 kb/s\r\nMovie name                               : 18+ The Unattainable Story 2017 Movies 720p HDRip x264 5.1 ESubs &#x263B;rDX&#x263B;\r\n\r\nVideo\r\nID                                       : 2\r\nFormat                                   : AVC\r\nFormat/Info                              : Advanced Video Codec\r\nFormat profile                           : High@L4.1\r\nFormat settings, CABAC                   : Yes\r\nFormat settings, ReFrames                : 4 frames\r\nCodec ID                                 : V_MPEG4/ISO/AVC\r\nDuration                                 : 1 h 12 min\r\nBit rate                                 : 1 100 kb/s\r\nWidth                                    : 1 280 pixels\r\nHeight                                   : 720 pixels\r\nDisplay aspect ratio                     : 16:9\r\nFrame rate mode                          : Constant\r\nFrame rate                               : 23.810 FPS\r\nColor space                              : YUV\r\nChroma subsampling                       : 4:2:0\r\nBit depth                                : 8 bits\r\nScan type                                : Progressive\r\nBits/(Pixel*Frame)                       : 0.050\r\nStream size                              : 556 MiB (72%)\r\nTitle                                    : &#x263B;rDX&#x263B;\r\nWriting library                          : x264\r\n\r\nAudio\r\nID                                       : 1\r\nFormat                                   : AC-3\r\nFormat/Info                              : Audio Coding 3\r\nMode extension                           : CM (complete main)\r\nFormat settings, Endianness              : Big\r\nCodec ID                                 : A_AC3\r\nDuration                                 : 1 h 12 min\r\nBit rate mode                            : Constant\r\nBit rate                                 : 384 kb/s\r\nChannel(s)                               : 6 channels\r\nChannel positions                        : Front: L C R, Side: L R, LFE\r\nSampling rate                            : 48.0 kHz\r\nFrame rate                               : 31.250 FPS (1536 spf)\r\nBit depth                                : 16 bits\r\nCompression mode                         : Lossy\r\nStream size                              : 199 MiB (26%)\r\nTitle                                    : &#x263B;rDX&#x263B;\r\nDefault                                  : Yes\r\nForced                                   : No","last_updated":"2018-05-01T12:04:17.399Z","parsed":{"xt":"urn:btih:1761363753f3489a5ae302bc30ff768dcc721f9b","dn":"18  The Unattainable Story 2017 Movies 720p HDRip x264 5.1 ESubs","tr":["udp://exodus.desync.com:6969","udp://open.demonii.com:1337","udp://tracker.coppersurfer.tk:6969","udp://tracker.leechers-paradise.org:6969","udp://zer0day.ch:1337"],"infoHash":"1761363753f3489a5ae302bc30ff768dcc721f9b","infoHashBuffer":{"type":"Buffer","data":[23,97,54,55,83,243,72,154,90,227,2,188,48,255,118,141,204,114,31,155]},"name":"18  The Unattainable Story 2017 Movies 720p HDRip x264 5.1 ESubs","announce":["udp://exodus.desync.com:6969","udp://open.demonii.com:1337","udp://tracker.coppersurfer.tk:6969","udp://tracker.leechers-paradise.org:6969","udp://zer0day.ch:1337"],"urlList":[]}}